<svg width="2160" height="1560" viewBox="0 0 2160 1560" fill="none" xmlns="http://www.w3.org/2000/svg">
<mask id="mask0" mask-type="alpha" maskUnits="userSpaceOnUse" x="871" y="545" width="88" height="94">
<ellipse cx="915" cy="592" rx="44" ry="47" fill="#2C2D30"/>
</mask>
<g mask="url(#mask0)">
<path fill-rule="evenodd" clip-rule="evenodd" d="M870.798 588.735C881.36 588.847 891.955 584.599 900.014 575.991C908.072 567.383 912.049 556.065 911.944 544.783C901.382 544.671 890.787 548.919 882.729 557.528C874.67 566.136 870.693 577.453 870.798 588.735Z" fill="#2C2D30"/>
<path fill-rule="evenodd" clip-rule="evenodd" d="M918.754 544.783C918.649 556.065 922.626 567.383 930.684 575.991C938.743 584.599 949.338 588.847 959.9 588.735C960.005 577.453 956.028 566.136 947.969 557.528C939.91 548.919 929.315 544.671 918.754 544.783Z" fill="#2C2D30"/>
<path fill-rule="evenodd" clip-rule="evenodd" d="M959.9 596.009C949.338 595.897 938.743 600.145 930.685 608.753C922.626 617.362 918.649 628.679 918.754 639.961C929.316 640.073 939.911 635.825 947.97 627.217C956.028 618.608 960.005 607.291 959.9 596.009Z" fill="#2C2D30"/>
<path fill-rule="evenodd" clip-rule="evenodd" d="M911.944 639.961C912.049 628.679 908.072 617.362 900.013 608.754C891.954 600.145 881.36 595.897 870.798 596.01C870.693 607.292 874.67 618.609 882.728 627.217C890.787 635.825 901.382 640.073 911.944 639.961Z" fill="#2C2D30"/>
</g>
<path d="M1033.73 585H1033.33C1033.07 586.733 1030.87 588.467 1026.73 590.2L1011.73 596.2C1007.47 597.933 1004.2 600.4 1001.93 603.6C999.666 606.667 998.533 610.533 998.533 615.2C998.533 617.2 998.733 619.267 999.133 621.4C999.533 623.533 1000.27 625.467 1001.33 627.2C1002.4 628.8 1003.87 630.133 1005.73 631.2C1007.73 632.267 1010.27 632.8 1013.33 632.8C1017.73 632.8 1021.27 631.867 1023.93 630C1026.73 628.133 1028.8 625.8 1030.13 623C1031.6 620.2 1032.53 617.2 1032.93 614C1033.47 610.667 1033.73 607.667 1033.73 605V585ZM1068.73 631.8C1067 633.133 1064.93 634.267 1062.53 635.2C1060.13 636.267 1057.2 636.8 1053.73 636.8C1047.33 636.8 1042.67 635.467 1039.73 632.8C1036.93 630 1035 626.133 1033.93 621.2H1033.53C1033 622.4 1032.27 623.933 1031.33 625.8C1030.4 627.533 1028.93 629.267 1026.93 631C1025.07 632.6 1022.53 633.933 1019.33 635C1016.13 636.2 1012.07 636.8 1007.13 636.8C1001.53 636.8 997.066 636.133 993.733 634.8C990.4 633.6 987.8 632.067 985.933 630.2C984.066 628.333 982.8 626.267 982.133 624C981.6 621.6 981.333 619.4 981.333 617.4C981.333 612.733 982.266 609 984.133 606.2C986 603.4 988.4 601.2 991.333 599.6C994.4 597.867 997.733 596.467 1001.33 595.4C1005.07 594.333 1008.8 593.2 1012.53 592C1016.93 590.533 1020.53 589.267 1023.33 588.2C1026.27 587.133 1028.53 585.867 1030.13 584.4C1031.73 582.8 1032.8 580.867 1033.33 578.6C1034 576.2 1034.33 573 1034.33 569C1034.33 565.8 1034.13 562.933 1033.73 560.4C1033.33 557.867 1032.6 555.733 1031.53 554C1030.47 552.133 1028.93 550.733 1026.93 549.8C1024.93 548.867 1022.27 548.4 1018.93 548.4C1014.53 548.4 1010.87 549.2 1007.93 550.8C1005.13 552.267 1003.73 554.733 1003.73 558.2C1003.73 560.467 1003.93 562.733 1004.33 565C1004.73 567.133 1004.93 568.733 1004.93 569.8C1004.93 571.667 1004.27 573.267 1002.93 574.6C1001.6 575.8 999.666 576.4 997.133 576.4C992.733 576.4 990 575.6 988.933 574C987.866 572.4 987.333 570.333 987.333 567.8C987.333 564.867 988 562.067 989.333 559.4C990.666 556.733 992.6 554.4 995.133 552.4C997.8 550.267 1001.07 548.6 1004.93 547.4C1008.93 546.2 1013.47 545.6 1018.53 545.6C1024.67 545.6 1029.8 546.4 1033.93 548C1038.07 549.467 1041.4 551.533 1043.93 554.2C1046.47 556.733 1048.27 559.667 1049.33 563C1050.4 566.2 1050.93 569.6 1050.93 573.2V623C1050.93 626.867 1051.53 629.467 1052.73 630.8C1053.93 632.133 1055.67 632.8 1057.93 632.8C1059.4 632.8 1060.93 632.533 1062.53 632C1064.13 631.467 1065.67 630.667 1067.13 629.6L1068.73 631.8Z" fill="#2C2D30"/>
<path d="M1080.62 606H1082.82C1083.76 609.2 1084.96 612.467 1086.42 615.8C1087.89 619 1089.82 622 1092.22 624.8C1094.76 627.467 1097.82 629.667 1101.42 631.4C1105.02 633.133 1109.36 634 1114.42 634C1118.69 634 1122.49 632.733 1125.82 630.2C1129.16 627.533 1130.82 623.267 1130.82 617.4C1130.82 612.333 1129.49 608.8 1126.82 606.8C1124.29 604.667 1121.29 603 1117.82 601.8L1102.22 596.4C1100.22 595.733 1098.02 594.933 1095.62 594C1093.36 592.933 1091.22 591.533 1089.22 589.8C1087.22 587.933 1085.56 585.6 1084.22 582.8C1083.02 580 1082.42 576.4 1082.42 572C1082.42 568.267 1083.16 564.8 1084.62 561.6C1086.09 558.4 1088.09 555.6 1090.62 553.2C1093.16 550.8 1096.16 548.933 1099.62 547.6C1103.22 546.267 1107.09 545.6 1111.22 545.6C1114.16 545.6 1116.49 545.867 1118.22 546.4C1120.09 546.8 1121.69 547.267 1123.02 547.8C1124.36 548.2 1125.56 548.667 1126.62 549.2C1127.69 549.6 1128.96 549.8 1130.42 549.8C1131.89 549.8 1132.96 549.267 1133.62 548.2H1135.82V571H1133.62C1132.69 568.067 1131.62 565.267 1130.42 562.6C1129.22 559.8 1127.76 557.333 1126.02 555.2C1124.42 553.067 1122.36 551.4 1119.82 550.2C1117.42 549 1114.56 548.4 1111.22 548.4C1104.82 548.4 1099.82 549.867 1096.22 552.8C1092.76 555.6 1091.02 559.4 1091.02 564.2C1091.02 568.467 1092.49 571.733 1095.42 574C1098.49 576.133 1102.96 578.133 1108.82 580L1123.42 584.8C1129.69 586.933 1134.82 589.867 1138.82 593.6C1142.82 597.333 1144.82 602.267 1144.82 608.4C1144.82 612 1144.09 615.533 1142.62 619C1141.29 622.467 1139.22 625.533 1136.42 628.2C1133.76 630.733 1130.42 632.8 1126.42 634.4C1122.56 636 1118.09 636.8 1113.02 636.8C1110.09 636.8 1107.36 636.467 1104.82 635.8C1102.42 635.267 1100.16 634.667 1098.02 634C1096.02 633.333 1094.16 632.733 1092.42 632.2C1090.69 631.533 1089.09 631.2 1087.62 631.2C1086.16 631.2 1085.09 631.533 1084.42 632.2C1083.76 632.733 1083.22 633.333 1082.82 634H1080.62V606Z" fill="#2C2D30"/>
<path d="M1160.18 631.2H1175.58V551H1160.18V548.2H1192.78V631.2H1208.18V634H1160.18V631.2Z" fill="#2C2D30"/>
<path d="M1224.96 606H1227.16C1228.09 609.2 1229.29 612.467 1230.76 615.8C1232.22 619 1234.16 622 1236.56 624.8C1239.09 627.467 1242.16 629.667 1245.76 631.4C1249.36 633.133 1253.69 634 1258.76 634C1263.02 634 1266.82 632.733 1270.16 630.2C1273.49 627.533 1275.16 623.267 1275.16 617.4C1275.16 612.333 1273.82 608.8 1271.16 606.8C1268.62 604.667 1265.62 603 1262.16 601.8L1246.56 596.4C1244.56 595.733 1242.36 594.933 1239.96 594C1237.69 592.933 1235.56 591.533 1233.56 589.8C1231.56 587.933 1229.89 585.6 1228.56 582.8C1227.36 580 1226.76 576.4 1226.76 572C1226.76 568.267 1227.49 564.8 1228.96 561.6C1230.42 558.4 1232.42 555.6 1234.96 553.2C1237.49 550.8 1240.49 548.933 1243.96 547.6C1247.56 546.267 1251.42 545.6 1255.56 545.6C1258.49 545.6 1260.82 545.867 1262.56 546.4C1264.42 546.8 1266.02 547.267 1267.36 547.8C1268.69 548.2 1269.89 548.667 1270.96 549.2C1272.02 549.6 1273.29 549.8 1274.76 549.8C1276.22 549.8 1277.29 549.267 1277.96 548.2H1280.16V571H1277.96C1277.02 568.067 1275.96 565.267 1274.76 562.6C1273.56 559.8 1272.09 557.333 1270.36 555.2C1268.76 553.067 1266.69 551.4 1264.16 550.2C1261.76 549 1258.89 548.4 1255.56 548.4C1249.16 548.4 1244.16 549.867 1240.56 552.8C1237.09 555.6 1235.36 559.4 1235.36 564.2C1235.36 568.467 1236.82 571.733 1239.76 574C1242.82 576.133 1247.29 578.133 1253.16 580L1267.76 584.8C1274.02 586.933 1279.16 589.867 1283.16 593.6C1287.16 597.333 1289.16 602.267 1289.16 608.4C1289.16 612 1288.42 615.533 1286.96 619C1285.62 622.467 1283.56 625.533 1280.76 628.2C1278.09 630.733 1274.76 632.8 1270.76 634.4C1266.89 636 1262.42 636.8 1257.36 636.8C1254.42 636.8 1251.69 636.467 1249.16 635.8C1246.76 635.267 1244.49 634.667 1242.36 634C1240.36 633.333 1238.49 632.733 1236.76 632.2C1235.02 631.533 1233.42 631.2 1231.96 631.2C1230.49 631.2 1229.42 631.533 1228.76 632.2C1228.09 632.733 1227.56 633.333 1227.16 634H1224.96V606Z" fill="#2C2D30"/>
<path d="M1176.18 502.2C1174.18 504.2 1173.18 506.667 1173.18 509.6C1173.18 512.533 1174.18 515.067 1176.18 517.2C1178.31 519.2 1180.85 520.2 1183.78 520.2C1186.71 520.2 1189.18 519.2 1191.18 517.2C1193.31 515.067 1194.38 512.533 1194.38 509.6C1194.38 506.667 1193.31 504.2 1191.18 502.2C1189.18 500.067 1186.71 499 1183.78 499C1180.85 499 1178.31 500.067 1176.18 502.2Z" fill="#84A4F7"/>
</svg>
