<svg width="250" height="87" viewBox="0 0 250 87" fill="none" xmlns="http://www.w3.org/2000/svg">
<path d="M96.9191 51.5366H96.6794C96.5196 52.5753 95.2013 53.614 92.7244 54.6527L83.7357 58.2482C81.1789 59.2869 79.2213 60.765 77.863 62.6826C76.5047 64.5203 75.8256 66.8374 75.8256 69.6339C75.8256 70.8324 75.9455 72.0708 76.1852 73.3492C76.4249 74.6276 76.8643 75.7862 77.5035 76.8249C78.1427 77.7837 79.0216 78.5827 80.1402 79.2219C81.3387 79.8611 82.8568 80.1807 84.6945 80.1807C87.3312 80.1807 89.4485 79.6214 91.0465 78.5028C92.7244 77.3842 93.9628 75.9859 94.7618 74.308C95.6407 72.6301 96.2 70.8324 96.4397 68.9148C96.7593 66.9173 96.9191 65.1196 96.9191 63.5216V51.5366ZM117.893 79.5814C116.854 80.3804 115.616 81.0596 114.177 81.6189C112.739 82.258 110.981 82.5777 108.904 82.5777C105.069 82.5777 102.272 81.7787 100.515 80.1807C98.8367 78.5028 97.6782 76.1857 97.039 73.2294H96.7993C96.4797 73.9485 96.0402 74.8673 95.4809 75.9859C94.9216 77.0246 94.0427 78.0633 92.8442 79.102C91.7256 80.0608 90.2076 80.8598 88.29 81.499C86.3724 82.2181 83.9354 82.5777 80.9791 82.5777C77.6234 82.5777 74.9467 82.1782 72.9492 81.3792C70.9517 80.6601 69.3937 79.7412 68.2751 78.6226C67.1565 77.504 66.3974 76.2656 65.9979 74.9073C65.6783 73.4691 65.5186 72.1507 65.5186 70.9523C65.5186 68.1558 66.0778 65.9186 67.1964 64.2407C68.315 62.5628 69.7532 61.2444 71.511 60.2856C73.3487 59.2469 75.3462 58.408 77.5035 57.7688C79.7407 57.1296 81.9779 56.4505 84.2151 55.7314C86.8518 54.8525 89.0091 54.0934 90.687 53.4542C92.4447 52.815 93.803 52.056 94.7618 51.1771C95.7206 50.2183 96.3598 49.0597 96.6794 47.7014C97.0789 46.2632 97.2787 44.3457 97.2787 41.9487C97.2787 40.0311 97.1588 38.3132 96.9191 36.7951C96.6794 35.277 96.24 33.9986 95.6008 32.96C94.9616 31.8414 94.0427 31.0024 92.8442 30.4431C91.6457 29.8838 90.0477 29.6042 88.0503 29.6042C85.4136 29.6042 83.2163 30.0836 81.4585 31.0424C79.7806 31.9213 78.9417 33.3994 78.9417 35.4768C78.9417 36.8351 79.0616 38.1934 79.3013 39.5517C79.541 40.8301 79.6608 41.7889 79.6608 42.4281C79.6608 43.5467 79.2613 44.5055 78.4623 45.3045C77.6633 46.0236 76.5048 46.3831 74.9867 46.3831C72.35 46.3831 70.712 45.9037 70.0728 44.9449C69.4336 43.9861 69.114 42.7477 69.114 41.2296C69.114 39.4718 69.5135 37.7939 70.3125 36.1959C71.1115 34.5979 72.2701 33.1996 73.7882 32.0012C75.3862 30.7228 77.3437 29.724 79.6608 29.0049C82.0578 28.2858 84.7744 27.9263 87.8106 27.9263C91.486 27.9263 94.5621 28.4057 97.039 29.3645C99.5159 30.2434 101.513 31.4818 103.031 33.0798C104.55 34.5979 105.628 36.3557 106.267 38.3532C106.907 40.2708 107.226 42.3082 107.226 44.4655V74.308C107.226 76.6251 107.586 78.1832 108.305 78.9822C109.024 79.7812 110.063 80.1807 111.421 80.1807C112.3 80.1807 113.219 80.0209 114.177 79.7013C115.136 79.3817 116.055 78.9023 116.934 78.2631L117.893 79.5814Z" fill="#2C2D30"/>
<path d="M125.017 64.1208H126.336C126.895 66.0384 127.614 67.996 128.493 69.9935C129.372 71.911 130.53 73.7088 131.969 75.3867C133.487 76.9847 135.324 78.303 137.482 79.3417C139.639 80.3804 142.236 80.8998 145.272 80.8998C147.829 80.8998 150.106 80.1407 152.103 78.6226C154.101 77.0246 155.1 74.4678 155.1 70.9523C155.1 67.9161 154.301 65.7987 152.703 64.6002C151.184 63.3218 149.387 62.3231 147.309 61.604L137.961 58.3681C136.763 57.9686 135.444 57.4892 134.006 56.9299C132.648 56.2907 131.369 55.4517 130.171 54.413C128.972 53.2944 127.974 51.8962 127.175 50.2183C126.455 48.5404 126.096 46.3831 126.096 43.7464C126.096 41.5092 126.535 39.4318 127.414 37.5142C128.293 35.5966 129.492 33.9187 131.01 32.4806C132.528 31.0424 134.326 29.9238 136.403 29.1248C138.56 28.3258 140.877 27.9263 143.354 27.9263C145.112 27.9263 146.51 28.0861 147.549 28.4057C148.668 28.6454 149.626 28.925 150.425 29.2446C151.224 29.4843 151.943 29.764 152.583 30.0836C153.222 30.3233 153.981 30.4431 154.86 30.4431C155.739 30.4431 156.378 30.1235 156.777 29.4843H158.096V43.1472H156.777C156.218 41.3894 155.579 39.7115 154.86 38.1135C154.141 36.4356 153.262 34.9574 152.223 33.679C151.264 32.4007 150.026 31.4019 148.508 30.6828C147.07 29.9637 145.352 29.6042 143.354 29.6042C139.519 29.6042 136.523 30.4831 134.366 32.2409C132.288 33.9187 131.249 36.1959 131.249 39.0723C131.249 41.6291 132.128 43.5866 133.886 44.9449C135.724 46.2233 138.401 47.4218 141.916 48.5404L150.665 51.4168C154.42 52.6952 157.497 54.453 159.894 56.6902C162.291 58.9273 163.489 61.8836 163.489 65.559C163.489 67.7163 163.05 69.8336 162.171 71.911C161.372 73.9884 160.133 75.8261 158.455 77.4241C156.857 78.9422 154.86 80.1807 152.463 81.1395C150.146 82.0982 147.469 82.5777 144.433 82.5777C142.675 82.5777 141.037 82.3779 139.519 81.9784C138.081 81.6588 136.723 81.2993 135.444 80.8998C134.246 80.5003 133.127 80.1407 132.088 79.8211C131.05 79.4216 130.091 79.2219 129.212 79.2219C128.333 79.2219 127.694 79.4216 127.294 79.8211C126.895 80.1407 126.575 80.5003 126.336 80.8998H125.017V64.1208Z" fill="#2C2D30"/>
<path d="M172.691 79.2219H181.92V31.1622H172.691V29.4843H192.227V79.2219H201.455V80.8998H172.691V79.2219Z" fill="#2C2D30"/>
<path d="M211.51 64.1208H212.829C213.388 66.0384 214.107 67.996 214.986 69.9935C215.865 71.911 217.023 73.7088 218.462 75.3867C219.98 76.9847 221.817 78.303 223.975 79.3417C226.132 80.3804 228.729 80.8998 231.765 80.8998C234.322 80.8998 236.599 80.1407 238.596 78.6226C240.594 77.0246 241.593 74.4678 241.593 70.9523C241.593 67.9161 240.794 65.7987 239.196 64.6002C237.677 63.3218 235.88 62.3231 233.802 61.604L224.454 58.3681C223.256 57.9686 221.937 57.4892 220.499 56.9299C219.141 56.2907 217.862 55.4517 216.664 54.413C215.465 53.2944 214.467 51.8962 213.668 50.2183C212.948 48.5404 212.589 46.3831 212.589 43.7464C212.589 41.5092 213.028 39.4318 213.907 37.5142C214.786 35.5966 215.985 33.9187 217.503 32.4806C219.021 31.0424 220.819 29.9238 222.896 29.1248C225.053 28.3258 227.37 27.9263 229.847 27.9263C231.605 27.9263 233.003 28.0861 234.042 28.4057C235.161 28.6454 236.119 28.925 236.918 29.2446C237.717 29.4843 238.436 29.764 239.076 30.0836C239.715 30.3233 240.474 30.4431 241.353 30.4431C242.232 30.4431 242.871 30.1235 243.27 29.4843H244.589V43.1472H243.27C242.711 41.3894 242.072 39.7115 241.353 38.1135C240.634 36.4356 239.755 34.9574 238.716 33.679C237.757 32.4007 236.519 31.4019 235.001 30.6828C233.563 29.9637 231.845 29.6042 229.847 29.6042C226.012 29.6042 223.016 30.4831 220.859 32.2409C218.781 33.9187 217.742 36.1959 217.742 39.0723C217.742 41.6291 218.621 43.5866 220.379 44.9449C222.217 46.2233 224.893 47.4218 228.409 48.5404L237.158 51.4168C240.913 52.6952 243.99 54.453 246.386 56.6902C248.783 58.9273 249.982 61.8836 249.982 65.559C249.982 67.7163 249.543 69.8336 248.664 71.911C247.865 73.9884 246.626 75.8261 244.948 77.4241C243.35 78.9422 241.353 80.1807 238.956 81.1395C236.639 82.0982 233.962 82.5777 230.926 82.5777C229.168 82.5777 227.53 82.3779 226.012 81.9784C224.574 81.6588 223.216 81.2993 221.937 80.8998C220.739 80.5003 219.62 80.1407 218.581 79.8211C217.543 79.4216 216.584 79.2219 215.705 79.2219C214.826 79.2219 214.187 79.4216 213.787 79.8211C213.388 80.1407 213.068 80.5003 212.829 80.8998H211.51V64.1208Z" fill="#2C2D30"/>
<path d="M182.279 1.91857C181.081 3.11706 180.481 4.59521 180.481 6.353C180.481 8.11079 181.081 9.62889 182.279 10.9073C183.558 12.1058 185.076 12.705 186.833 12.705C188.591 12.705 190.069 12.1058 191.268 10.9073C192.546 9.62889 193.186 8.11079 193.186 6.353C193.186 4.59521 192.546 3.11706 191.268 1.91857C190.069 0.640173 188.591 0.000976562 186.833 0.000976562C185.076 0.000976562 183.558 0.640173 182.279 1.91857Z" fill="#84A4F7"/>
<path d="M3.94987 51.9473C9.23005 51.5649 14.4048 49.2189 18.44 44.9086C22.4751 40.5983 24.6715 35.0708 25.0294 29.4306C19.7493 29.813 14.5745 32.1591 10.5393 36.4693C6.50417 40.7796 4.30786 46.3072 3.94987 51.9473Z" fill="#2C2D30"/>
<path d="M53.7933 59.9921C48.5131 60.3745 43.3383 62.7206 39.3032 67.0309C35.268 71.3411 33.0717 76.8687 32.7137 82.5088C37.9939 82.1265 43.1687 79.7804 47.2039 75.4701C51.239 71.1598 53.4353 65.6323 53.7933 59.9921Z" fill="#2C2D30"/>
<path d="M25.0866 82.6562C24.7388 76.9502 22.5245 71.3718 18.4699 67.0407C14.4545 62.7516 9.33112 60.4268 4.12012 60.0322C4.46786 65.7382 6.68221 71.3166 10.7368 75.6477C14.7522 79.9368 19.8756 82.2616 25.0866 82.6562Z" fill="#2C2D30"/>
<path d="M32.8014 29.3884C33.1594 35.0286 35.3557 40.5562 39.3908 44.8665C43.426 49.1767 48.6006 51.5228 53.8807 51.9052C53.5228 46.265 51.3264 40.7374 47.2913 36.4271C43.2562 32.1169 38.0815 29.7709 32.8014 29.3884Z" fill="#2C2D30"/>
</svg>
