<svg width="1921" height="1180" viewBox="0 0 1921 1180" fill="none" xmlns="http://www.w3.org/2000/svg">
<mask id="mask0" mask-type="alpha" maskUnits="userSpaceOnUse" x="752" y="549" width="88" height="94">
<ellipse cx="796" cy="596" rx="44" ry="47" fill="#2C2D30"/>
</mask>
<g mask="url(#mask0)">
<path fill-rule="evenodd" clip-rule="evenodd" d="M751.797 592.735C762.359 592.847 772.954 588.599 781.013 579.991C789.072 571.383 793.049 560.065 792.944 548.783C782.382 548.671 771.787 552.919 763.728 561.528C755.669 570.136 751.693 581.453 751.797 592.735Z" fill="#2C2D30"/>
<path fill-rule="evenodd" clip-rule="evenodd" d="M799.753 548.783C799.648 560.065 803.625 571.383 811.684 579.991C819.743 588.599 830.337 592.847 840.899 592.735C841.004 581.453 837.027 570.136 828.968 561.528C820.91 552.919 810.315 548.671 799.753 548.783Z" fill="#2C2D30"/>
<path fill-rule="evenodd" clip-rule="evenodd" d="M840.9 600.009C830.338 599.897 819.743 604.145 811.684 612.753C803.626 621.362 799.649 632.679 799.754 643.961C810.315 644.073 820.91 639.825 828.969 631.217C837.028 622.608 841.005 611.291 840.9 600.009Z" fill="#2C2D30"/>
<path fill-rule="evenodd" clip-rule="evenodd" d="M792.943 643.961C793.048 632.679 789.071 621.362 781.013 612.754C772.954 604.145 762.359 599.897 751.797 600.009C751.692 611.292 755.669 622.609 763.728 631.217C771.787 639.825 782.381 644.073 792.943 643.961Z" fill="#2C2D30"/>
</g>
<path d="M914.733 589H914.333C914.066 590.733 911.866 592.467 907.733 594.2L892.733 600.2C888.466 601.933 885.2 604.4 882.933 607.6C880.666 610.667 879.533 614.533 879.533 619.2C879.533 621.2 879.733 623.267 880.133 625.4C880.533 627.533 881.266 629.467 882.333 631.2C883.4 632.8 884.866 634.133 886.733 635.2C888.733 636.267 891.266 636.8 894.333 636.8C898.733 636.8 902.266 635.867 904.933 634C907.733 632.133 909.8 629.8 911.133 627C912.6 624.2 913.533 621.2 913.933 618C914.466 614.667 914.733 611.667 914.733 609V589ZM949.733 635.8C948 637.133 945.933 638.267 943.533 639.2C941.133 640.267 938.2 640.8 934.733 640.8C928.333 640.8 923.666 639.467 920.733 636.8C917.933 634 916 630.133 914.933 625.2H914.533C914 626.4 913.266 627.933 912.333 629.8C911.4 631.533 909.933 633.267 907.933 635C906.066 636.6 903.533 637.933 900.333 639C897.133 640.2 893.066 640.8 888.133 640.8C882.533 640.8 878.066 640.133 874.733 638.8C871.4 637.6 868.8 636.067 866.933 634.2C865.066 632.333 863.8 630.267 863.133 628C862.6 625.6 862.333 623.4 862.333 621.4C862.333 616.733 863.266 613 865.133 610.2C867 607.4 869.4 605.2 872.333 603.6C875.4 601.867 878.733 600.467 882.333 599.4C886.066 598.333 889.8 597.2 893.533 596C897.933 594.533 901.533 593.267 904.333 592.2C907.266 591.133 909.533 589.867 911.133 588.4C912.733 586.8 913.8 584.867 914.333 582.6C915 580.2 915.333 577 915.333 573C915.333 569.8 915.133 566.933 914.733 564.4C914.333 561.867 913.6 559.733 912.533 558C911.466 556.133 909.933 554.733 907.933 553.8C905.933 552.867 903.266 552.4 899.933 552.4C895.533 552.4 891.866 553.2 888.933 554.8C886.133 556.267 884.733 558.733 884.733 562.2C884.733 564.467 884.933 566.733 885.333 569C885.733 571.133 885.933 572.733 885.933 573.8C885.933 575.667 885.266 577.267 883.933 578.6C882.6 579.8 880.666 580.4 878.133 580.4C873.733 580.4 871 579.6 869.933 578C868.866 576.4 868.333 574.333 868.333 571.8C868.333 568.867 869 566.067 870.333 563.4C871.666 560.733 873.6 558.4 876.133 556.4C878.8 554.267 882.066 552.6 885.933 551.4C889.933 550.2 894.466 549.6 899.533 549.6C905.666 549.6 910.8 550.4 914.933 552C919.066 553.467 922.4 555.533 924.933 558.2C927.466 560.733 929.266 563.667 930.333 567C931.4 570.2 931.933 573.6 931.933 577.2V627C931.933 630.867 932.533 633.467 933.733 634.8C934.933 636.133 936.666 636.8 938.933 636.8C940.4 636.8 941.933 636.533 943.533 636C945.133 635.467 946.666 634.667 948.133 633.6L949.733 635.8Z" fill="#2C2D30"/>
<path d="M961.622 610H963.822C964.755 613.2 965.955 616.467 967.422 619.8C968.889 623 970.822 626 973.222 628.8C975.755 631.467 978.822 633.667 982.422 635.4C986.022 637.133 990.355 638 995.422 638C999.689 638 1003.49 636.733 1006.82 634.2C1010.16 631.533 1011.82 627.267 1011.82 621.4C1011.82 616.333 1010.49 612.8 1007.82 610.8C1005.29 608.667 1002.29 607 998.822 605.8L983.222 600.4C981.222 599.733 979.022 598.933 976.622 598C974.355 596.933 972.222 595.533 970.222 593.8C968.222 591.933 966.555 589.6 965.222 586.8C964.022 584 963.422 580.4 963.422 576C963.422 572.267 964.155 568.8 965.622 565.6C967.089 562.4 969.089 559.6 971.622 557.2C974.155 554.8 977.155 552.933 980.622 551.6C984.222 550.267 988.089 549.6 992.222 549.6C995.155 549.6 997.489 549.867 999.222 550.4C1001.09 550.8 1002.69 551.267 1004.02 551.8C1005.36 552.2 1006.56 552.667 1007.62 553.2C1008.69 553.6 1009.96 553.8 1011.42 553.8C1012.89 553.8 1013.96 553.267 1014.62 552.2H1016.82V575H1014.62C1013.69 572.067 1012.62 569.267 1011.42 566.6C1010.22 563.8 1008.76 561.333 1007.02 559.2C1005.42 557.067 1003.36 555.4 1000.82 554.2C998.422 553 995.555 552.4 992.222 552.4C985.822 552.4 980.822 553.867 977.222 556.8C973.755 559.6 972.022 563.4 972.022 568.2C972.022 572.467 973.489 575.733 976.422 578C979.489 580.133 983.955 582.133 989.822 584L1004.42 588.8C1010.69 590.933 1015.82 593.867 1019.82 597.6C1023.82 601.333 1025.82 606.267 1025.82 612.4C1025.82 616 1025.09 619.533 1023.62 623C1022.29 626.467 1020.22 629.533 1017.42 632.2C1014.76 634.733 1011.42 636.8 1007.42 638.4C1003.56 640 999.089 640.8 994.022 640.8C991.089 640.8 988.355 640.467 985.822 639.8C983.422 639.267 981.155 638.667 979.022 638C977.022 637.333 975.155 636.733 973.422 636.2C971.689 635.533 970.089 635.2 968.622 635.2C967.155 635.2 966.089 635.533 965.422 636.2C964.755 636.733 964.222 637.333 963.822 638H961.622V610Z" fill="#2C2D30"/>
<path d="M1041.18 635.2H1056.58V555H1041.18V552.2H1073.78V635.2H1089.18V638H1041.18V635.2Z" fill="#2C2D30"/>
<path d="M1105.96 610H1108.16C1109.09 613.2 1110.29 616.467 1111.76 619.8C1113.22 623 1115.16 626 1117.56 628.8C1120.09 631.467 1123.16 633.667 1126.76 635.4C1130.36 637.133 1134.69 638 1139.76 638C1144.02 638 1147.82 636.733 1151.16 634.2C1154.49 631.533 1156.16 627.267 1156.16 621.4C1156.16 616.333 1154.82 612.8 1152.16 610.8C1149.62 608.667 1146.62 607 1143.16 605.8L1127.56 600.4C1125.56 599.733 1123.36 598.933 1120.96 598C1118.69 596.933 1116.56 595.533 1114.56 593.8C1112.56 591.933 1110.89 589.6 1109.56 586.8C1108.36 584 1107.76 580.4 1107.76 576C1107.76 572.267 1108.49 568.8 1109.96 565.6C1111.42 562.4 1113.42 559.6 1115.96 557.2C1118.49 554.8 1121.49 552.933 1124.96 551.6C1128.56 550.267 1132.42 549.6 1136.56 549.6C1139.49 549.6 1141.82 549.867 1143.56 550.4C1145.42 550.8 1147.02 551.267 1148.36 551.8C1149.69 552.2 1150.89 552.667 1151.96 553.2C1153.02 553.6 1154.29 553.8 1155.76 553.8C1157.22 553.8 1158.29 553.267 1158.96 552.2H1161.16V575H1158.96C1158.02 572.067 1156.96 569.267 1155.76 566.6C1154.56 563.8 1153.09 561.333 1151.36 559.2C1149.76 557.067 1147.69 555.4 1145.16 554.2C1142.76 553 1139.89 552.4 1136.56 552.4C1130.16 552.4 1125.16 553.867 1121.56 556.8C1118.09 559.6 1116.36 563.4 1116.36 568.2C1116.36 572.467 1117.82 575.733 1120.76 578C1123.82 580.133 1128.29 582.133 1134.16 584L1148.76 588.8C1155.02 590.933 1160.16 593.867 1164.16 597.6C1168.16 601.333 1170.16 606.267 1170.16 612.4C1170.16 616 1169.42 619.533 1167.96 623C1166.62 626.467 1164.56 629.533 1161.76 632.2C1159.09 634.733 1155.76 636.8 1151.76 638.4C1147.89 640 1143.42 640.8 1138.36 640.8C1135.42 640.8 1132.69 640.467 1130.16 639.8C1127.76 639.267 1125.49 638.667 1123.36 638C1121.36 637.333 1119.49 636.733 1117.76 636.2C1116.02 635.533 1114.42 635.2 1112.96 635.2C1111.49 635.2 1110.42 635.533 1109.76 636.2C1109.09 636.733 1108.56 637.333 1108.16 638H1105.96V610Z" fill="#2C2D30"/>
<path d="M1057.18 506.2C1055.18 508.2 1054.18 510.667 1054.18 513.6C1054.18 516.533 1055.18 519.067 1057.18 521.2C1059.31 523.2 1061.84 524.2 1064.78 524.2C1067.71 524.2 1070.18 523.2 1072.18 521.2C1074.31 519.067 1075.38 516.533 1075.38 513.6C1075.38 510.667 1074.31 508.2 1072.18 506.2C1070.18 504.067 1067.71 503 1064.78 503C1061.84 503 1059.31 504.067 1057.18 506.2Z" fill="#84A4F7"/>
</svg>
