<svg width="276" height="276" viewBox="0 0 276 276" fill="none" xmlns="http://www.w3.org/2000/svg">
<g filter="url(#filter0_d)">
<circle cx="138" cy="138" r="112" fill="#84A4F6"/>
</g>
<mask id="path-2-inside-1" fill="white">
<path d="M276 138C276 165.294 267.906 191.975 252.743 214.669C237.579 237.363 216.027 255.05 190.81 265.495C165.594 275.94 137.847 278.673 111.078 273.348C84.3082 268.024 59.7189 254.88 40.4193 235.581C21.1196 216.281 7.97639 191.692 2.65163 164.922C-2.67313 138.153 0.0597314 110.406 10.5046 85.1897C20.9495 59.9735 38.6373 38.4208 61.3313 23.2572C84.0253 8.09356 110.706 -3.25476e-07 138 0L138 8.71284C112.429 8.71284 87.4331 16.2954 66.1719 30.5017C44.9107 44.7079 28.3397 64.8998 18.5542 88.5239C8.7688 112.148 6.20849 138.143 11.1971 163.223C16.1856 188.302 28.499 211.339 46.5802 229.42C64.6613 247.501 87.6981 259.814 112.777 264.803C137.857 269.792 163.852 267.231 187.476 257.446C211.1 247.66 231.292 231.089 245.498 209.828C259.705 188.567 267.287 163.571 267.287 138H276Z"/>
</mask>
<path d="M276 138C276 165.294 267.906 191.975 252.743 214.669C237.579 237.363 216.027 255.05 190.81 265.495C165.594 275.94 137.847 278.673 111.078 273.348C84.3082 268.024 59.7189 254.88 40.4193 235.581C21.1196 216.281 7.97639 191.692 2.65163 164.922C-2.67313 138.153 0.0597314 110.406 10.5046 85.1897C20.9495 59.9735 38.6373 38.4208 61.3313 23.2572C84.0253 8.09356 110.706 -3.25476e-07 138 0L138 8.71284C112.429 8.71284 87.4331 16.2954 66.1719 30.5017C44.9107 44.7079 28.3397 64.8998 18.5542 88.5239C8.7688 112.148 6.20849 138.143 11.1971 163.223C16.1856 188.302 28.499 211.339 46.5802 229.42C64.6613 247.501 87.6981 259.814 112.777 264.803C137.857 269.792 163.852 267.231 187.476 257.446C211.1 247.66 231.292 231.089 245.498 209.828C259.705 188.567 267.287 163.571 267.287 138H276Z" stroke="#84A4F6" stroke-opacity="0.56" stroke-width="12" mask="url(#path-2-inside-1)"/>
<defs>
<filter id="filter0_d" x="18" y="18" width="240" height="240" filterUnits="userSpaceOnUse" color-interpolation-filters="sRGB">
<feFlood flood-opacity="0" result="BackgroundImageFix"/>
<feColorMatrix in="SourceAlpha" type="matrix" values="0 0 0 0 0 0 0 0 0 0 0 0 0 0 0 0 0 0 127 0"/>
<feOffset/>
<feGaussianBlur stdDeviation="4"/>
<feColorMatrix type="matrix" values="0 0 0 0 0.524149 0 0 0 0 0.642517 0 0 0 0 0.945833 0 0 0 0.64 0"/>
<feBlend mode="normal" in2="BackgroundImageFix" result="effect1_dropShadow"/>
<feBlend mode="normal" in="SourceGraphic" in2="effect1_dropShadow" result="shape"/>
</filter>
</defs>
</svg>
